<mxfile host="app.diagrams.net" modified="2024-01-12T07:17:07.916Z" agent="Mozilla/5.0 (Windows NT 10.0; Win64; x64) AppleWebKit/537.36 (KHTML, like Gecko) Chrome/120.0.0.0 Safari/537.36" etag="RUuvxeuOI19gATnqjp9z" version="22.1.18" type="github">
  <diagram name="Page-1" id="e7e014a7-5840-1c2e-5031-d8a46d1fe8dd">
    <mxGraphModel dx="678" dy="393" grid="1" gridSize="10" guides="1" tooltips="1" connect="1" arrows="1" fold="1" page="1" pageScale="1" pageWidth="1169" pageHeight="826" background="none" math="0" shadow="0">
      <root>
        <mxCell id="0" />
        <mxCell id="1" parent="0" />
        <mxCell id="2" value="User" style="swimlane;whiteSpace=wrap;labelBackgroundColor=none;fillColor=#F45B69;strokeColor=#028090;fontColor=#E4FDE1;" parent="1" vertex="1">
          <mxGeometry x="164.5" y="128" width="280" height="570" as="geometry" />
        </mxCell>
        <mxCell id="5" value="" style="ellipse;shape=startState;fillColor=#F45B69;strokeColor=#028090;labelBackgroundColor=none;fontColor=#070807;" parent="2" vertex="1">
          <mxGeometry x="122" y="40" width="30" height="30" as="geometry" />
        </mxCell>
        <mxCell id="7GgxdohYxJIii1fMbdh3-42" style="edgeStyle=orthogonalEdgeStyle;rounded=0;orthogonalLoop=1;jettySize=auto;html=1;exitX=0.5;exitY=1;exitDx=0;exitDy=0;labelBackgroundColor=none;strokeColor=#028090;fontColor=#070807;" edge="1" parent="2" source="5" target="7GgxdohYxJIii1fMbdh3-41">
          <mxGeometry relative="1" as="geometry" />
        </mxCell>
        <mxCell id="7GgxdohYxJIii1fMbdh3-45" value="" style="edgeStyle=orthogonalEdgeStyle;rounded=0;orthogonalLoop=1;jettySize=auto;html=1;labelBackgroundColor=none;strokeColor=#028090;fontColor=#070807;" edge="1" parent="2" source="7GgxdohYxJIii1fMbdh3-41" target="7GgxdohYxJIii1fMbdh3-44">
          <mxGeometry relative="1" as="geometry" />
        </mxCell>
        <mxCell id="7GgxdohYxJIii1fMbdh3-41" value="Buka Halaman Login" style="rounded=1;whiteSpace=wrap;html=1;labelBackgroundColor=none;fillColor=#F45B69;strokeColor=#028090;fontColor=#070807;" vertex="1" parent="2">
          <mxGeometry x="64.5" y="101" width="144.5" height="32" as="geometry" />
        </mxCell>
        <mxCell id="7GgxdohYxJIii1fMbdh3-44" value="Input Username Dan Password" style="rounded=1;whiteSpace=wrap;html=1;labelBackgroundColor=none;fillColor=#F45B69;strokeColor=#028090;fontColor=#070807;" vertex="1" parent="2">
          <mxGeometry x="64.5" y="213" width="144.5" height="32" as="geometry" />
        </mxCell>
        <mxCell id="3" value="Sistem" style="swimlane;whiteSpace=wrap;labelBackgroundColor=none;fillColor=#F45B69;strokeColor=#028090;fontColor=#E4FDE1;" parent="1" vertex="1">
          <mxGeometry x="444.5" y="128" width="280" height="570" as="geometry" />
        </mxCell>
        <mxCell id="7GgxdohYxJIii1fMbdh3-53" style="edgeStyle=orthogonalEdgeStyle;rounded=0;orthogonalLoop=1;jettySize=auto;html=1;exitX=0.5;exitY=1;exitDx=0;exitDy=0;entryX=0.5;entryY=0;entryDx=0;entryDy=0;labelBackgroundColor=none;strokeColor=#028090;fontColor=#070807;" edge="1" parent="3" source="7GgxdohYxJIii1fMbdh3-46" target="7GgxdohYxJIii1fMbdh3-52">
          <mxGeometry relative="1" as="geometry" />
        </mxCell>
        <mxCell id="7GgxdohYxJIii1fMbdh3-54" value="Benar" style="edgeLabel;html=1;align=center;verticalAlign=middle;resizable=0;points=[];labelBackgroundColor=none;fontColor=#070807;" vertex="1" connectable="0" parent="7GgxdohYxJIii1fMbdh3-53">
          <mxGeometry x="-0.3043" y="1" relative="1" as="geometry">
            <mxPoint as="offset" />
          </mxGeometry>
        </mxCell>
        <mxCell id="7GgxdohYxJIii1fMbdh3-46" value="Validasi" style="rhombus;whiteSpace=wrap;html=1;labelBackgroundColor=none;fillColor=#F45B69;strokeColor=#028090;fontColor=#070807;" vertex="1" parent="3">
          <mxGeometry x="65.5" y="152" width="94.5" height="38" as="geometry" />
        </mxCell>
        <mxCell id="7GgxdohYxJIii1fMbdh3-57" value="" style="edgeStyle=orthogonalEdgeStyle;rounded=0;orthogonalLoop=1;jettySize=auto;html=1;labelBackgroundColor=none;strokeColor=#028090;fontColor=#070807;" edge="1" parent="3" source="7GgxdohYxJIii1fMbdh3-52" target="7GgxdohYxJIii1fMbdh3-56">
          <mxGeometry relative="1" as="geometry" />
        </mxCell>
        <mxCell id="7GgxdohYxJIii1fMbdh3-52" value="Berhasil Login" style="rounded=1;whiteSpace=wrap;html=1;labelBackgroundColor=none;fillColor=#F45B69;strokeColor=#028090;fontColor=#070807;" vertex="1" parent="3">
          <mxGeometry x="40.5" y="259" width="144.5" height="32" as="geometry" />
        </mxCell>
        <mxCell id="7GgxdohYxJIii1fMbdh3-60" style="edgeStyle=orthogonalEdgeStyle;rounded=0;orthogonalLoop=1;jettySize=auto;html=1;labelBackgroundColor=none;strokeColor=#028090;fontColor=#070807;" edge="1" parent="3" source="7GgxdohYxJIii1fMbdh3-56" target="7GgxdohYxJIii1fMbdh3-58">
          <mxGeometry relative="1" as="geometry" />
        </mxCell>
        <mxCell id="7GgxdohYxJIii1fMbdh3-56" value="Halaman Utama" style="rounded=1;whiteSpace=wrap;html=1;labelBackgroundColor=none;fillColor=#F45B69;strokeColor=#028090;fontColor=#070807;" vertex="1" parent="3">
          <mxGeometry x="40.5" y="341" width="144.5" height="32" as="geometry" />
        </mxCell>
        <mxCell id="7GgxdohYxJIii1fMbdh3-58" value="" style="ellipse;html=1;shape=endState;fillColor=#F45B69;strokeColor=#028090;labelBackgroundColor=none;fontColor=#070807;" vertex="1" parent="3">
          <mxGeometry x="97.5" y="414" width="30" height="30" as="geometry" />
        </mxCell>
        <mxCell id="7GgxdohYxJIii1fMbdh3-47" style="edgeStyle=orthogonalEdgeStyle;rounded=0;orthogonalLoop=1;jettySize=auto;html=1;exitX=0.5;exitY=0;exitDx=0;exitDy=0;entryX=1;entryY=0.5;entryDx=0;entryDy=0;labelBackgroundColor=none;strokeColor=#028090;fontColor=#070807;" edge="1" parent="1" source="7GgxdohYxJIii1fMbdh3-46" target="7GgxdohYxJIii1fMbdh3-41">
          <mxGeometry relative="1" as="geometry" />
        </mxCell>
        <mxCell id="7GgxdohYxJIii1fMbdh3-48" value="Salah" style="edgeLabel;html=1;align=center;verticalAlign=middle;resizable=0;points=[];labelBackgroundColor=none;fontColor=#070807;" vertex="1" connectable="0" parent="7GgxdohYxJIii1fMbdh3-47">
          <mxGeometry x="0.1088" y="1" relative="1" as="geometry">
            <mxPoint as="offset" />
          </mxGeometry>
        </mxCell>
        <mxCell id="7GgxdohYxJIii1fMbdh3-59" style="edgeStyle=orthogonalEdgeStyle;rounded=0;orthogonalLoop=1;jettySize=auto;html=1;exitX=1;exitY=0.5;exitDx=0;exitDy=0;entryX=0;entryY=0.5;entryDx=0;entryDy=0;labelBackgroundColor=none;strokeColor=#028090;fontColor=#070807;" edge="1" parent="1" source="7GgxdohYxJIii1fMbdh3-44" target="7GgxdohYxJIii1fMbdh3-46">
          <mxGeometry relative="1" as="geometry" />
        </mxCell>
        <mxCell id="7GgxdohYxJIii1fMbdh3-61" value="=" style="text;align=center;fontStyle=1;verticalAlign=middle;spacingLeft=3;spacingRight=3;strokeColor=none;rotatable=0;points=[[0,0.5],[1,0.5]];portConstraint=eastwest;html=1;fontColor=#E4FDE1;" vertex="1" parent="1">
          <mxGeometry x="400" y="370" width="80" height="26" as="geometry" />
        </mxCell>
      </root>
    </mxGraphModel>
  </diagram>
</mxfile>
